<svg xmlns="http://www.w3.org/2000/svg" xmlns:xlink="http://www.w3.org/1999/xlink" version="1.1" data-diagram-type="DESCRIPTION" style="width:426px;height:1382px;background:#FFFFFF;" width="426px" height="1382px" viewBox="0 0 426 1382" zoomAndPan="magnify" preserveAspectRatio="none" contentStyleType="text/css"><?plantuml 1.2026.7beta11?><defs/><g font-family="sans-serif" lengthAdjust="spacing"><!--cluster School Management System--><g class="cluster" data-qualified-name="School Management System" id="ent0004" data-source-line="10"><rect x="128.34" y="7" width="283.83" height="1361" fill="none" style="stroke:#696969;stroke-width:1;" rx="3.5" ry="3.5"/><text x="158.505" y="21.995" fill="#000" font-size="14" textLength="223.501" font-weight="700">School Management System</text></g><!--entity UC1--><g class="entity" data-qualified-name="School Management System.UC1" id="ent0005" data-source-line="12"><ellipse cx="270.263" cy="457.997" rx="66.683" ry="15.737" fill="#F1F1F1" style="stroke:#181818;stroke-width:0.5;"/><text x="221.318" y="462.645" fill="#000" font-size="14" textLength="97.891">Manage users</text></g><!--entity UC2--><g class="entity" data-qualified-name="School Management System.UC2" id="ent0006" data-source-line="13"><ellipse cx="270.264" cy="381.999" rx="115.194" ry="25.439" fill="#F1F1F1" style="stroke:#181818;stroke-width:0.5;"/><text x="165.729" y="386.647" fill="#000" font-size="14" textLength="209.07">Setup academic year &amp; terms</text></g><!--entity UC3--><g class="entity" data-qualified-name="School Management System.UC3" id="ent0007" data-source-line="14"><ellipse cx="270.257" cy="294.003" rx="125.917" ry="27.583" fill="#F1F1F1" style="stroke:#181818;stroke-width:0.5;"/><text x="154.289" y="298.652" fill="#000" font-size="14" textLength="231.937">Create classes &amp; assign teachers</text></g><!--entity UC4--><g class="entity" data-qualified-name="School Management System.UC4" id="ent0008" data-source-line="15"><ellipse cx="270.263" cy="212.003" rx="83.863" ry="19.173" fill="#F1F1F1" style="stroke:#181818;stroke-width:0.5;"/><text x="200.414" y="216.651" fill="#000" font-size="14" textLength="139.699">Configure timetable</text></g><!--entity UC5--><g class="entity" data-qualified-name="School Management System.UC5" id="ent0009" data-source-line="16"><ellipse cx="270.264" cy="134.005" rx="106.974" ry="23.795" fill="#F1F1F1" style="stroke:#181818;stroke-width:0.5;"/><text x="174.605" y="138.653" fill="#000" font-size="14" textLength="191.317">Configure grade thresholds</text></g><!--entity UC6--><g class="entity" data-qualified-name="School Management System.UC6" id="ent0010" data-source-line="17"><ellipse cx="270.255" cy="59.001" rx="71.105" ry="16.621" fill="#F1F1F1" style="stroke:#181818;stroke-width:0.5;"/><text x="215.681" y="63.649" fill="#000" font-size="14" textLength="109.149">View all reports</text></g><!--entity UC7--><g class="entity" data-qualified-name="School Management System.UC7" id="ent0011" data-source-line="20"><ellipse cx="270.264" cy="598.005" rx="74.974" ry="17.395" fill="#F1F1F1" style="stroke:#181818;stroke-width:0.5;"/><text x="210.932" y="602.653" fill="#000" font-size="14" textLength="118.665">Mark attendance</text></g><!--entity UC8--><g class="entity" data-qualified-name="School Management System.UC8" id="ent0012" data-source-line="21"><ellipse cx="270.256" cy="526.995" rx="79.276" ry="18.255" fill="#F1F1F1" style="stroke:#181818;stroke-width:0.5;"/><text x="205.773" y="531.644" fill="#000" font-size="14" textLength="128.967">Enter exam marks</text></g><!--entity UC9--><g class="entity" data-qualified-name="School Management System.UC9" id="ent0013" data-source-line="22"><ellipse cx="270.261" cy="820.996" rx="69.481" ry="16.296" fill="#F1F1F1" style="stroke:#181818;stroke-width:0.5;"/><text x="217.727" y="825.645" fill="#000" font-size="14" textLength="105.068">View timetable</text></g><!--entity UC10--><g class="entity" data-qualified-name="School Management System.UC10" id="ent0014" data-source-line="23"><ellipse cx="270.259" cy="750.996" rx="83.129" ry="19.026" fill="#F1F1F1" style="stroke:#181818;stroke-width:0.5;"/><text x="201.261" y="755.644" fill="#000" font-size="14" textLength="137.997">View class students</text></g><!--entity UC11--><g class="entity" data-qualified-name="School Management System.UC11" id="ent0015" data-source-line="24"><ellipse cx="270.257" cy="674.003" rx="104.467" ry="23.293" fill="#F1F1F1" style="stroke:#181818;stroke-width:0.5;"/><text x="177.329" y="678.652" fill="#000" font-size="14" textLength="185.855">View student performance</text></g><!--entity UC12--><g class="entity" data-qualified-name="School Management System.UC12" id="ent0016" data-source-line="27"><ellipse cx="270.257" cy="1334.995" rx="73.977" ry="17.195" fill="#F1F1F1" style="stroke:#181818;stroke-width:0.5;"/><text x="212.138" y="1339.644" fill="#000" font-size="14" textLength="116.238">Register student</text></g><!--entity UC13--><g class="entity" data-qualified-name="School Management System.UC13" id="ent0017" data-source-line="28"><ellipse cx="270.257" cy="1263.995" rx="79.577" ry="18.315" fill="#F1F1F1" style="stroke:#181818;stroke-width:0.5;"/><text x="205.418" y="1268.644" fill="#000" font-size="14" textLength="129.678">Manage guardians</text></g><!--entity UC14--><g class="entity" data-qualified-name="School Management System.UC14" id="ent0018" data-source-line="29"><ellipse cx="270.262" cy="1188.002" rx="100.612" ry="22.522" fill="#F1F1F1" style="stroke:#181818;stroke-width:0.5;"/><text x="181.559" y="1192.651" fill="#000" font-size="14" textLength="177.406">Enroll students in classes</text></g><!--entity UC15--><g class="entity" data-qualified-name="School Management System.UC15" id="ent0019" data-source-line="30"><ellipse cx="270.263" cy="1112.005" rx="78.423" ry="18.085" fill="#F1F1F1" style="stroke:#181818;stroke-width:0.5;"/><text x="206.791" y="1116.653" fill="#000" font-size="14" textLength="126.943">Generate invoices</text></g><!--entity UC16--><g class="entity" data-qualified-name="School Management System.UC16" id="ent0020" data-source-line="31"><ellipse cx="270.259" cy="1041.004" rx="76.919" ry="17.784" fill="#F1F1F1" style="stroke:#181818;stroke-width:0.5;"/><text x="208.582" y="1045.652" fill="#000" font-size="14" textLength="123.354">Record payments</text></g><!--entity UC17--><g class="entity" data-qualified-name="School Management System.UC17" id="ent0021" data-source-line="32"><ellipse cx="270.257" cy="968.001" rx="90.807" ry="20.561" fill="#F1F1F1" style="stroke:#181818;stroke-width:0.5;"/><text x="192.474" y="972.65" fill="#000" font-size="14" textLength="155.565">Generate report cards</text></g><!--entity UC18--><g class="entity" data-qualified-name="School Management System.UC18" id="ent0022" data-source-line="33"><ellipse cx="270.261" cy="892" rx="87.701" ry="19.94" fill="#F1F1F1" style="stroke:#181818;stroke-width:0.5;"/><text x="196.002" y="896.649" fill="#000" font-size="14" textLength="148.518">View student records</text></g><!--entity Principal--><g class="entity" data-qualified-name="Principal" id="ent0001" data-source-line="6"><ellipse cx="45.172" cy="230.85" rx="16" ry="16" fill="#454645" style="stroke:#454645;stroke-width:0.5;"/><path d="M45.172,250.85 C49.172,250.85 52.172,250.85 56.172,246.85 C64.172,246.85 72.172,254.85 72.172,262.85 L72.172,266.85 C72.172,270.85 68.172,274.85 64.172,274.85 L26.172,274.85 C22.172,274.85 18.172,270.85 18.172,266.85 L18.172,262.85 C18.172,254.85 26.172,246.85 34.172,246.85 C38.172,250.85 41.172,250.85 45.172,250.85" fill="#454645"/><text x="15.22" y="288.345" fill="#454645" font-size="14" textLength="59.903">Principal</text></g><!--entity Teacher--><g class="entity" data-qualified-name="Teacher" id="ent0002" data-source-line="7"><ellipse cx="45.172" cy="651.85" rx="16" ry="16" fill="#454645" style="stroke:#454645;stroke-width:0.5;"/><path d="M45.172,671.85 C49.172,671.85 52.172,671.85 56.172,667.85 C64.172,667.85 72.172,675.85 72.172,683.85 L72.172,687.85 C72.172,691.85 68.172,695.85 64.172,695.85 L26.172,695.85 C22.172,695.85 18.172,691.85 18.172,687.85 L18.172,683.85 C18.172,675.85 26.172,667.85 34.172,667.85 C38.172,671.85 41.172,671.85 45.172,671.85" fill="#454645"/><text x="16.83" y="709.345" fill="#454645" font-size="14" textLength="56.684">Teacher</text></g><!--entity OfficeStaff--><g class="entity" data-qualified-name="OfficeStaff" id="ent0003" data-source-line="8"><ellipse cx="45.17" cy="1089.85" rx="16" ry="16" fill="#454645" style="stroke:#454645;stroke-width:0.5;"/><path d="M45.17,1109.85 C49.17,1109.85 52.17,1109.85 56.17,1105.85 C64.17,1105.85 72.17,1113.85 72.17,1121.85 L72.17,1125.85 C72.17,1129.85 68.17,1133.85 64.17,1133.85 L26.17,1133.85 C22.17,1133.85 18.17,1129.85 18.17,1125.85 L18.17,1121.85 C18.17,1113.85 26.17,1105.85 34.17,1105.85 C38.17,1109.85 41.17,1109.85 45.17,1109.85" fill="#454645"/><text x="6" y="1147.345" fill="#454645" font-size="14" textLength="78.34">Office Staff</text></g><!--link Principal to UC1--><g class="link" data-entity-1="ent0001" data-entity-2="ent0005" id="lnk23" data-source-line="37" data-link-type="dependency"><path d="M52.4,291.96 C60.82,331.47 79.74,391.43 120.34,425 C143.5,444.15 170.442,452.162 198.772,455.862" style="stroke:#454645;stroke-width:1;" fill="none" id="Principal-to-UC1"/><polygon points="203.73,456.51,195.324,451.378,198.772,455.862,194.288,459.311,203.73,456.51" fill="#454645" style="stroke:#454645;stroke-width:1;stroke-linejoin:miter;stroke-miterlimit:10;"/></g><!--link Principal to UC2--><g class="link" data-entity-1="ent0001" data-entity-2="ent0006" id="lnk24" data-source-line="38" data-link-type="dependency"><path d="M71.85,291.83 C84.64,308.49 101.42,326.87 120.34,339 C138.58,350.69 155.282,357.839 176.182,364.129" style="stroke:#454645;stroke-width:1;" fill="none" id="Principal-to-UC2"/><polygon points="180.97,365.57,173.505,359.146,176.182,364.129,171.199,366.807,180.97,365.57" fill="#454645" style="stroke:#454645;stroke-width:1;stroke-linejoin:miter;stroke-miterlimit:10;"/></g><!--link Principal to UC3--><g class="link" data-entity-1="ent0001" data-entity-2="ent0007" id="lnk25" data-source-line="39" data-link-type="dependency"><path d="M75.33,258.36 C100.2,262.93 132.472,268.867 167.662,275.327" style="stroke:#454645;stroke-width:1;" fill="none" id="Principal-to-UC3"/><polygon points="172.58,276.23,164.45,270.671,167.662,275.327,163.006,278.539,172.58,276.23" fill="#454645" style="stroke:#454645;stroke-width:1;stroke-linejoin:miter;stroke-miterlimit:10;"/></g><!--link Principal to UC4--><g class="link" data-entity-1="ent0001" data-entity-2="ent0008" id="lnk26" data-source-line="40" data-link-type="dependency"><path d="M75.33,247.64 C107.81,241.67 156.432,232.734 199.032,224.904" style="stroke:#454645;stroke-width:1;" fill="none" id="Principal-to-UC4"/><polygon points="203.95,224,194.375,221.693,199.032,224.904,195.821,229.561,203.95,224" fill="#454645" style="stroke:#454645;stroke-width:1;stroke-linejoin:miter;stroke-miterlimit:10;"/></g><!--link Principal to UC5--><g class="link" data-entity-1="ent0001" data-entity-2="ent0009" id="lnk27" data-source-line="41" data-link-type="dependency"><path d="M75.57,214.12 C88,200.01 103.51,185.08 120.34,175 C140.01,163.22 158.329,156.066 180.429,149.986" style="stroke:#454645;stroke-width:1;" fill="none" id="Principal-to-UC5"/><polygon points="185.25,148.66,175.511,147.191,180.429,149.986,177.633,154.904,185.25,148.66" fill="#454645" style="stroke:#454645;stroke-width:1;stroke-linejoin:miter;stroke-miterlimit:10;"/></g><!--link Principal to UC6--><g class="link" data-entity-1="ent0001" data-entity-2="ent0010" id="lnk28" data-source-line="42" data-link-type="dependency"><path d="M53.93,213.99 C63.3,177.25 82.74,123.44 120.34,93 C142.6,74.98 167.639,66.878 194.869,62.648" style="stroke:#454645;stroke-width:1;" fill="none" id="Principal-to-UC6"/><polygon points="199.81,61.88,190.303,59.309,194.869,62.648,191.531,67.214,199.81,61.88" fill="#454645" style="stroke:#454645;stroke-width:1;stroke-linejoin:miter;stroke-miterlimit:10;"/></g><!--link Teacher to UC7--><g class="link" data-entity-1="ent0002" data-entity-2="ent0011" id="lnk29" data-source-line="44" data-link-type="dependency"><path d="M73.82,656.34 C87.4,648.29 104.28,639.19 120.34,633 C148.59,622.11 176.313,614.99 203.813,609.32" style="stroke:#454645;stroke-width:1;" fill="none" id="Teacher-to-UC7"/><polygon points="208.71,608.31,199.088,606.21,203.813,609.32,200.703,614.045,208.71,608.31" fill="#454645" style="stroke:#454645;stroke-width:1;stroke-linejoin:miter;stroke-miterlimit:10;"/></g><!--link Teacher to UC8--><g class="link" data-entity-1="ent0002" data-entity-2="ent0012" id="lnk30" data-source-line="45" data-link-type="dependency"><path d="M63.02,635.05 C75.46,610.8 94.68,580.91 120.34,563 C142.37,547.62 165.285,539.741 190.905,534.671" style="stroke:#454645;stroke-width:1;" fill="none" id="Teacher-to-UC8"/><polygon points="195.81,533.7,186.205,531.523,190.905,534.671,187.758,539.371,195.81,533.7" fill="#454645" style="stroke:#454645;stroke-width:1;stroke-linejoin:miter;stroke-miterlimit:10;"/></g><!--link Teacher to UC9--><g class="link" data-entity-1="ent0002" data-entity-2="ent0013" id="lnk31" data-source-line="46" data-link-type="dependency"><path d="M62.11,713.05 C74.38,738.22 93.75,769.57 120.34,788 C144.17,804.52 169.919,812.175 197.239,816.405" style="stroke:#454645;stroke-width:1;" fill="none" id="Teacher-to-UC9"/><polygon points="202.18,817.17,193.898,811.84,197.239,816.405,192.674,819.746,202.18,817.17" fill="#454645" style="stroke:#454645;stroke-width:1;stroke-linejoin:miter;stroke-miterlimit:10;"/></g><!--link Teacher to UC10--><g class="link" data-entity-1="ent0002" data-entity-2="ent0014" id="lnk32" data-source-line="47" data-link-type="dependency"><path d="M73.83,691.61 C87.43,699.66 104.3,708.76 120.34,715 C146.99,725.37 172.626,732.309 199.076,738.109" style="stroke:#454645;stroke-width:1;" fill="none" id="Teacher-to-UC10"/><polygon points="203.96,739.18,196.026,733.345,199.076,738.109,194.312,741.159,203.96,739.18" fill="#454645" style="stroke:#454645;stroke-width:1;stroke-linejoin:miter;stroke-miterlimit:10;"/></g><!--link Teacher to UC11--><g class="link" data-entity-1="ent0002" data-entity-2="ent0015" id="lnk33" data-source-line="48" data-link-type="dependency"><path d="M73.97,674 C97.16,674 126.72,674 160.35,674" style="stroke:#454645;stroke-width:1;" fill="none" id="Teacher-to-UC11"/><polygon points="165.35,674,156.35,670,160.35,674,156.35,678,165.35,674" fill="#454645" style="stroke:#454645;stroke-width:1;stroke-linejoin:miter;stroke-miterlimit:10;"/></g><!--link OfficeStaff to UC12--><g class="link" data-entity-1="ent0003" data-entity-2="ent0016" id="lnk34" data-source-line="50" data-link-type="dependency"><path d="M50.82,1150.86 C58.07,1193.76 76.15,1261.79 120.34,1300 C141.43,1318.24 165.349,1326.574 192.029,1331.044" style="stroke:#454645;stroke-width:1;" fill="none" id="OfficeStaff-to-UC12"/><polygon points="196.96,1331.87,188.745,1326.438,192.029,1331.044,187.423,1334.328,196.96,1331.87" fill="#454645" style="stroke:#454645;stroke-width:1;stroke-linejoin:miter;stroke-miterlimit:10;"/></g><!--link OfficeStaff to UC13--><g class="link" data-entity-1="ent0003" data-entity-2="ent0017" id="lnk35" data-source-line="51" data-link-type="dependency"><path d="M61.8,1151.01 C74.03,1176.63 93.48,1208.85 120.34,1228 C142.1,1243.52 164.825,1251.438 190.355,1256.498" style="stroke:#454645;stroke-width:1;" fill="none" id="OfficeStaff-to-UC13"/><polygon points="195.26,1257.47,187.209,1251.797,190.355,1256.498,185.654,1259.644,195.26,1257.47" fill="#454645" style="stroke:#454645;stroke-width:1;stroke-linejoin:miter;stroke-miterlimit:10;"/></g><!--link OfficeStaff to UC14--><g class="link" data-entity-1="ent0003" data-entity-2="ent0018" id="lnk36" data-source-line="52" data-link-type="dependency"><path d="M84.83,1132.47 C96.09,1137.97 108.54,1143.6 120.34,1148 C145.3,1157.31 168.508,1164.181 193.478,1170.621" style="stroke:#454645;stroke-width:1;" fill="none" id="OfficeStaff-to-UC14"/><polygon points="198.32,1171.87,190.604,1165.749,193.478,1170.621,188.606,1173.496,198.32,1171.87" fill="#454645" style="stroke:#454645;stroke-width:1;stroke-linejoin:miter;stroke-miterlimit:10;"/></g><!--link OfficeStaff to UC15--><g class="link" data-entity-1="ent0003" data-entity-2="ent0019" id="lnk37" data-source-line="53" data-link-type="dependency"><path d="M84.77,1112 C114.08,1112 150.35,1112 186.42,1112" style="stroke:#454645;stroke-width:1;" fill="none" id="OfficeStaff-to-UC15"/><polygon points="191.42,1112,182.42,1108,186.42,1112,182.42,1116,191.42,1112" fill="#454645" style="stroke:#454645;stroke-width:1;stroke-linejoin:miter;stroke-miterlimit:10;"/></g><!--link OfficeStaff to UC16--><g class="link" data-entity-1="ent0003" data-entity-2="ent0020" id="lnk38" data-source-line="54" data-link-type="dependency"><path d="M84.74,1091.29 C96,1085.79 108.47,1080.22 120.34,1076 C148.87,1065.86 176.629,1058.857 204.069,1053.037" style="stroke:#454645;stroke-width:1;" fill="none" id="OfficeStaff-to-UC16"/><polygon points="208.96,1052,199.326,1049.954,204.069,1053.037,200.986,1057.78,208.96,1052" fill="#454645" style="stroke:#454645;stroke-width:1;stroke-linejoin:miter;stroke-miterlimit:10;"/></g><!--link OfficeStaff to UC17--><g class="link" data-entity-1="ent0003" data-entity-2="ent0021" id="lnk39" data-source-line="55" data-link-type="dependency"><path d="M64.5,1073.09 C77.14,1050.31 96.05,1022.8 120.34,1006 C140.53,992.04 160.574,984.351 184.204,978.761" style="stroke:#454645;stroke-width:1;" fill="none" id="OfficeStaff-to-UC17"/><polygon points="189.07,977.61,179.391,975.789,184.204,978.761,181.233,983.574,189.07,977.61" fill="#454645" style="stroke:#454645;stroke-width:1;stroke-linejoin:miter;stroke-miterlimit:10;"/></g><!--link OfficeStaff to UC18--><g class="link" data-entity-1="ent0003" data-entity-2="ent0022" id="lnk40" data-source-line="56" data-link-type="dependency"><path d="M51.61,1073 C59.47,1031.51 78.03,966.88 120.34,930 C138.95,913.78 158.677,905.448 182.517,899.978" style="stroke:#454645;stroke-width:1;" fill="none" id="OfficeStaff-to-UC18"/><polygon points="187.39,898.86,177.723,896.974,182.517,899.978,179.512,904.771,187.39,898.86" fill="#454645" style="stroke:#454645;stroke-width:1;stroke-linejoin:miter;stroke-miterlimit:10;"/></g><?plantuml-src TLHDRzim3BthLt0vhAS2otTw6J0Kmqx3XcNRdPLfMuWb6PJIBXZstqVRaUlOxidYunFv-26_YoLPWcVpnEYYgYYF43smASe8cM7IqNYdmicu6XajrAXFMD0nNYg2neskg6X0G1qzTsvyeU0jATLYiFZEncbJOxK03D1RoVsJK9V4hVDwJgvlUMuqmJ5YdhV-3cXjfNePi3ZgqliAlg8JaPPSXECbHB8B-Ai0xbwJmZaGQ0mK19TpSuH5Tw-nERHvVZqkX_uZnNCj9M96rcYu43AyXqXi4tqrf3yoOPGq5GP994pvciB9XRQwT6TzSyUxt1Hd9eZ6KiIdYgwqpJojO543iMGAfQ-o57GxPFysz09OLJAnsdDCd9rgct9jzbijuHDWZEGoT3ffsGyfdvrq0EYFJDyAEqK_J1ICAtgOCDfMGOZdJ6RNZ-33X7TbG4sSUxO3PSjbLzHmPUOh-q652OtoQx0KO3Mp4SKPEJFeUadhsmQmb-OcsM1ScdcYtypk2pdYPZ6CU_OYicTjR-Lfpvayk8iTzc8t6wcRgzJ8_G8izszsZTlGFV6W_Ybr1vz2yDfWy-23Udqez_SVssSmHbOJP3r1DXDaEq5a2TC2Ti1-P1z6ziF8blKO0R82Wnz4GbTpu7eEtCo1spbmDmVkvy33Vm00?></g></svg>